<?xml version="1.0" encoding="iso-8859-1"?>
<!-- Generator: Adobe Illustrator 19.0.0, SVG Export Plug-In . SVG Version: 6.00 Build 0)  -->
<svg xmlns="http://www.w3.org/2000/svg" xmlns:xlink="http://www.w3.org/1999/xlink" version="1.1" id="Capa_1" x="0px" y="0px" viewBox="0 0 512 512" style="enable-background:new 0 0 512 512;" xml:space="preserve" width="512px" height="512px">
<g>
	<g>
		<path d="M431.262,80.738c-3.91-3.9-10.239-3.9-14.139,0c-3.91,3.91-3.91,10.239,0,14.139c3.9,3.91,10.229,3.91,14.139,0    C435.161,90.977,435.161,84.647,431.262,80.738z" fill="#FFFFFF"/>
	</g>
</g>
<g>
	<g>
		<path d="M497.341,14.665c-19.534-19.548-51.158-19.556-70.7-0.003L125.915,315.38c-34.543-9.29-71.06,0.354-96.603,25.897    c-39.081,39.081-39.084,102.327,0,141.411c39.081,39.081,102.327,39.084,141.411,0c25.544-25.544,35.188-62.06,25.897-96.602    l24.478-24.478v-0.001c8.646-8.646,267.564-267.572,276.237-276.246C516.879,65.832,516.894,34.204,497.341,14.665z     M214.029,340.394l-14.138-14.144l34.465-34.465l14.141,14.14L214.029,340.394z M262.639,291.783l-14.14-14.14l28.285-28.285    L290.92,263.5L262.639,291.783z M305.061,249.36l-14.137-14.142l28.278-28.279l14.142,14.137L305.061,249.36z M347.484,206.934    l-14.141-14.136l28.284-28.284l14.138,14.138L347.484,206.934z M483.197,71.217l-93.29,93.293l-14.138-14.138l27.207-27.207    c3.905-3.905,3.905-10.236,0-14.142c-3.906-3.904-10.235-3.904-14.142,0L134.772,363.086    c-23.416-16.652-56.197-14.507-77.185,6.471c-23.381,23.394-23.381,61.459,0,84.853c0.002,0.001,0.003,0.002,0.004,0.004    c23.393,23.379,61.457,23.381,84.857-0.004c20.971-20.983,23.118-53.763,6.467-77.181l36.836-36.836l14.138,14.144l-21.639,21.639    c-2.685,2.685-3.617,6.656-2.408,10.255c9.751,29.022,2.371,60.487-19.261,82.118c-31.264,31.266-81.861,31.27-113.128,0    c-31.266-31.264-31.27-81.861,0-113.128c21.598-21.601,53.058-29.026,82.118-19.26c3.596,1.208,7.569,0.276,10.255-2.408    L440.784,28.8c11.719-11.725,30.682-11.736,42.416,0.005C494.927,40.525,494.934,59.489,483.197,71.217z M128.307,440.267    c-15.597,15.59-40.976,15.59-56.576,0.002c-15.588-15.599-15.588-40.978-0.002-56.572c15.598-15.592,40.979-15.59,56.574-0.004    C143.894,399.292,143.894,424.672,128.307,440.267z" fill="#FFFFFF"/>
	</g>
</g>
<g>
</g>
<g>
</g>
<g>
</g>
<g>
</g>
<g>
</g>
<g>
</g>
<g>
</g>
<g>
</g>
<g>
</g>
<g>
</g>
<g>
</g>
<g>
</g>
<g>
</g>
<g>
</g>
<g>
</g>
</svg>
